<?xml version="1.0" encoding="utf-8"?>
<!-- Generator: Adobe Illustrator 23.0.3, SVG Export Plug-In . SVG Version: 6.00 Build 0)  -->
<svg version="1.1" id="Layer_1" xmlns="http://www.w3.org/2000/svg" xmlns:xlink="http://www.w3.org/1999/xlink" x="0px" y="0px"
	 viewBox="0 0 164.7 52.8" style="enable-background:new 0 0 164.7 52.8;" xml:space="preserve">
<style type="text/css">
	.st0{fill:#1d2f57;}
</style>
<g id="Group_1353" transform="translate(-214.48 -185.7)">
	<g id="Ellipse_394">
		<circle class="st0" cx="243.7" cy="219.1" r="2.1"/>
	</g>
	<g id="Path_967">
		<polygon class="st0" points="244.2,226.3 226.6,226.3 226.6,224.6 242.6,224.6 242.6,217.9 244.2,217.9 		"/>
	</g>
	<g id="Line_208">

			<rect x="243.6" y="218.4" transform="matrix(0.9999 -1.063770e-02 1.063770e-02 0.9999 -2.3182 2.674)" class="st0" width="13.2" height="1.7"/>
	</g>
	<g id="Path_968">
		<rect x="223.9" y="217.6" class="st0" width="11.1" height="1.7"/>
	</g>
	<g id="Ellipse_395">
		<circle class="st0" cx="234.1" cy="218.4" r="2.1"/>
	</g>
	<g id="Path_969">
		<rect x="245.4" y="208.4" class="st0" width="11.1" height="1.7"/>
	</g>
	<g id="Ellipse_396">
		<circle class="st0" cx="246.3" cy="209.2" r="2.1"/>
	</g>
	<g id="Line_209">
		<rect x="227.2" y="200.5" class="st0" width="6.3" height="1.7"/>
	</g>
	<g id="Ellipse_397">
		<circle class="st0" cx="234.6" cy="201.4" r="2.1"/>
	</g>
	<g id="Ellipse_398">
		<circle class="st0" cx="238.7" cy="211.8" r="2.1"/>
	</g>
	<g id="Path_970">
		<polygon class="st0" points="239.5,211.6 237.8,211.6 237.8,203.3 253.6,203.3 253.6,204.9 239.5,204.9 		"/>
	</g>
	<g id="Line_210">

			<rect x="225.3" y="211" transform="matrix(0.9999 -1.063455e-02 1.063455e-02 0.9999 -2.2396 2.4787)" class="st0" width="13.2" height="1.7"/>
	</g>
	<g id="Path_971">
		<path class="st0" d="M239.6,235.1c-0.8,0-1.5-0.1-2.3-0.2l0.3,2.3c0.1,0.5,0.5,0.8,0.9,0.8l3.2,0c0.5,0,0.9-0.3,0.9-0.8l0.4-2.3
			C242,235,240.8,235.1,239.6,235.1z"/>
		<path class="st0" d="M241.8,238.5C241.8,238.5,241.8,238.5,241.8,238.5l-3.2,0c-0.7,0-1.4-0.5-1.5-1.3l-0.4-3l0.7,0.1
			c0.7,0.1,1.5,0.2,2.2,0.2c1.1,0,2.3,0,3.4-0.2l0.7-0.1l-0.5,3C243.2,238,242.6,238.5,241.8,238.5z M238,235.5l0.2,1.6
			c0,0.2,0.2,0.3,0.4,0.3l3.2,0c0.2,0,0.4-0.1,0.4-0.3l0.2-1.6c-0.9,0.1-1.9,0.1-2.8,0.1h0C239.1,235.6,238.5,235.5,238,235.5z"/>
	</g>
	<g id="Path_972">
		<path class="st0" d="M227.8,230.8l-0.8,2.7c-0.1,0.4,0.1,0.9,0.5,1.1l2.9,1.4c0.4,0.2,0.9,0.1,1.2-0.3l1.4-2
			C231.1,232.9,229.3,232,227.8,230.8z"/>
		<path class="st0" d="M230.7,236.6c-0.2,0-0.4,0-0.7-0.2l-2.9-1.4c-0.7-0.3-1-1.1-0.8-1.8l1.1-3.4l0.6,0.5c1.5,1.2,3.2,2.1,5,2.8
			l0.7,0.3L232,236C231.7,236.4,231.2,236.6,230.7,236.6z M228.1,231.7l-0.6,1.9c-0.1,0.2,0,0.4,0.2,0.5l2.9,1.4
			c0.2,0.1,0.4,0,0.5-0.1l1-1.5C230.7,233.3,229.3,232.6,228.1,231.7z"/>
	</g>
	<g id="Path_973">
		<path class="st0" d="M252.7,230.9c-0.2,0.2-0.5,0.3-0.7,0.5c-1.4,1-2.9,1.7-4.5,2.3l1.4,2c0.3,0.4,0.8,0.5,1.2,0.3l2.9-1.4
			c0.4-0.2,0.6-0.7,0.5-1.1L252.7,230.9z"/>
		<path class="st0" d="M249.7,236.8c-0.5,0-0.9-0.2-1.2-0.7l-1.8-2.6l0.7-0.2c1.5-0.6,3-1.3,4.3-2.2c0.2-0.2,0.5-0.3,0.7-0.5
			l0.6-0.5l1,3.4c0.2,0.7-0.1,1.5-0.8,1.8l-2.9,1.4C250.2,236.7,249.9,236.8,249.7,236.8z M248.4,234l1,1.5c0.1,0.2,0.3,0.2,0.5,0.1
			l2.9-1.4c0.2-0.1,0.3-0.3,0.2-0.5l-0.6-1.9c0,0-0.1,0-0.1,0.1C251.1,232.8,249.8,233.5,248.4,234z"/>
	</g>
	<g id="Path_974">
		<path class="st0" d="M265.6,215.1l-2.9-1.1c0.1-0.7,0.1-1.4,0.1-2.1c0-0.7,0-1.3-0.1-2l2.9-1.1c0.4-0.2,0.7-0.6,0.6-1.1l-0.7-3.1
			c-0.1-0.5-0.5-0.8-1-0.7l-3.1,0.2c-0.5-1.3-1.1-2.5-1.8-3.7l2.1-2.3c0.3-0.3,0.3-0.9,0-1.2l-2-2.5c-0.3-0.4-0.8-0.5-1.2-0.2
			l-2.7,1.5c-1-0.9-2-1.8-3.2-2.5l0.9-3c0.1-0.4-0.1-0.9-0.5-1.1l-2.9-1.4c-0.4-0.2-0.9-0.1-1.2,0.3l-1.7,2.6
			c-1.3-0.4-2.6-0.7-4-0.9l-0.5-3.1c-0.1-0.5-0.5-0.8-0.9-0.8h-3.2c-0.5,0-0.9,0.3-0.9,0.8l-0.5,3.1c-1.3,0.2-2.5,0.4-3.7,0.8
			l-1.7-2.6c-0.3-0.4-0.8-0.5-1.2-0.3l-2.9,1.4c-0.4,0.2-0.6,0.7-0.5,1.1l0.9,3c-1.1,0.7-2.2,1.6-3.2,2.5l-2.7-1.6
			c-0.4-0.2-0.9-0.1-1.2,0.2l-2,2.5c-0.3,0.4-0.3,0.9,0,1.2l2.1,2.3c-0.7,1.2-1.3,2.4-1.8,3.6l-3.1-0.3c-0.5,0-0.9,0.3-1,0.7
			l-0.7,3.1c-0.1,0.5,0.1,0.9,0.6,1.1l2.9,1.2c-0.1,0.7-0.1,1.5-0.1,2.2c0,0.6,0,1.2,0.1,1.8l-2.9,1.1c-0.4,0.2-0.7,0.6-0.6,1.1
			l0.7,3.1c0.1,0.5,0.5,0.8,1,0.7l3.1-0.2c0.5,1.3,1,2.5,1.7,3.7l-2.1,2.3c-0.3,0.3-0.3,0.9-0.1,1.2l2,2.5c0.3,0.4,0.8,0.5,1.2,0.2
			l2.7-1.5c0.1,0.1,0.3,0.3,0.4,0.4c-0.7-0.8-1.4-1.7-2-2.6c-6.2-9.2-3.7-21.7,5.6-27.9c0.2-0.1,0.4-0.3,0.6-0.4l-0.6,0.5l-0.3,0.2
			c-0.1,0.1-0.2,0.2-0.3,0.3l-0.6,0.5c-0.2,0.2-0.4,0.4-0.6,0.5c-0.4,0.4-0.7,0.8-1.1,1.1c-0.2,0.2-0.3,0.4-0.5,0.6
			s-0.3,0.4-0.5,0.6c-1.3,1.7-2.3,3.5-3,5.5c-0.7,2-1.1,4-1.1,6.1c-0.1,2.1,0.2,4.1,0.8,6.1c0.1,0.5,0.3,1,0.5,1.5l0.3,0.7
			c0.1,0.2,0.2,0.5,0.3,0.7c2.2,4.7,6.2,8.3,11.1,10.1c1,0.3,1.9,0.6,3,0.8c1,0.2,2,0.3,3,0.3c1,0,2,0,3.1-0.1
			c0.3,0,0.5-0.1,0.8-0.1l0.8-0.1c0.5-0.1,1-0.2,1.5-0.4c1-0.3,1.9-0.6,2.9-1.1c0.9-0.4,1.8-0.9,2.7-1.5c5.2-3.5,8.5-9.3,8.7-15.6
			c0-0.5,0-1,0-1.6c0-0.3,0-0.5,0-0.8s0-0.5-0.1-0.8l-0.1-0.8c0-0.3-0.1-0.5-0.1-0.8c-0.1-0.5-0.2-1-0.3-1.5
			c-1.1-4.1-3.5-7.7-6.8-10.4l0.6,0.5c0.1,0.1,0.2,0.2,0.3,0.2l0.3,0.3c0.2,0.2,0.4,0.3,0.6,0.5l0.6,0.5c0.8,0.7,1.5,1.6,2.1,2.4
			c0.3,0.4,0.6,0.9,0.9,1.3l0.4,0.7c0.1,0.1,0.1,0.2,0.2,0.4l0.2,0.4c0.5,1,0.9,2,1.2,3c1.3,4.2,1.3,8.6-0.2,12.8
			c-0.9,2.7-2.4,5.1-4.3,7.2c0.1-0.1,0.2-0.2,0.3-0.3l2.7,1.6c0.4,0.2,0.9,0.1,1.2-0.2l2-2.5c0.3-0.4,0.3-0.9,0-1.2l-2.1-2.3
			c0.7-1.2,1.3-2.4,1.8-3.7l3.1,0.2c0.5,0,0.9-0.3,1-0.7l0.7-3.1C266.3,215.7,266,215.2,265.6,215.1z M256.2,211.8
			c0,8.7-7.1,15.8-15.8,15.8c-8.7,0-15.8-7.1-15.8-15.8c0-8.7,7.1-15.8,15.8-15.8c0,0,0,0,0,0C249.1,196,256.2,203.1,256.2,211.8
			L256.2,211.8z"/>
	</g>
	<g id="Ellipse_399">
		<path class="st0" d="M240.4,228.1c-8.8,0-16-7.2-16-16s7.2-16,16-16s16,7.2,16,16S249.2,228.1,240.4,228.1z M240.4,197.1
			c-8.2,0-14.9,6.7-14.9,14.9s6.7,14.9,14.9,14.9c8.2,0,14.9-6.7,14.9-14.9S248.6,197.1,240.4,197.1z"/>
	</g>
	<g id="Group_1295" transform="translate(276.088 204.365)">
		<g id="Path_975">
			<path class="st0" d="M0,14.1V0.7h4.6C5.8,0.7,7,1,8.1,1.7c0.8,0.7,1.3,1.7,1.2,2.7C9.2,5,9.1,5.5,8.7,6C8.4,6.5,7.9,6.9,7.3,7.2
				C8,7.3,8.6,7.7,9,8.3c0.4,0.6,0.6,1.3,0.6,2c0.1,1.1-0.4,2.2-1.2,2.9c-1,0.7-2.2,1.1-3.5,1L0,14.1z M2.3,6.4h2.3
				c0.6,0,1.2-0.1,1.7-0.5C6.7,5.5,7,5,6.9,4.5C7,4,6.8,3.4,6.4,3.1C5.8,2.7,5.2,2.6,4.6,2.6H2.3L2.3,6.4z M2.3,8.1v4.2h2.6
				c0.6,0,1.2-0.2,1.7-0.5c0.8-0.8,0.8-2.2,0-3C6.2,8.3,5.7,8.1,5.1,8.1H2.3z"/>
		</g>
		<g id="Path_976">
			<path class="st0" d="M14.1,14.1h-2.2V0h2.2V14.1z"/>
		</g>
		<g id="Path_977">
			<path class="st0" d="M22.5,13.2c-0.7,0.8-1.7,1.2-2.8,1.2c-0.9,0.1-1.8-0.3-2.5-0.9c-0.6-0.8-0.9-1.8-0.8-2.7V4.2h2.2v6.4
				c0,1.3,0.5,1.9,1.6,1.9c0.9,0.1,1.8-0.4,2.2-1.2V4.2h2.2v10h-2.1L22.5,13.2z"/>
		</g>
		<g id="Path_978">
			<path class="st0" d="M31.4,14.3c-1.3,0.1-2.5-0.4-3.4-1.3c-0.9-1-1.4-2.2-1.3-3.6V9.1c0-0.9,0.2-1.8,0.6-2.7
				c0.4-0.8,0.9-1.4,1.6-1.8C29.5,4.2,30.3,4,31.1,4c1.2-0.1,2.3,0.4,3.1,1.3C35,6.3,35.4,7.7,35.3,9v0.9h-6.5c0,0.7,0.3,1.4,0.8,2
				c0.5,0.5,1.1,0.7,1.8,0.7c1,0,1.9-0.4,2.5-1.2l1.2,1.2c-0.4,0.6-1,1.1-1.6,1.4C32.9,14.2,32.1,14.3,31.4,14.3z M31.1,5.8
				c-0.6,0-1.1,0.2-1.5,0.6c-0.4,0.5-0.7,1.1-0.7,1.8h4.3V8.1c0-0.6-0.2-1.2-0.6-1.7C32.2,6,31.6,5.8,31.1,5.8z"/>
		</g>
		<g id="Path_979">
			<path class="st0" d="M42.2,9h-2.6v5.2h-2.3V0.7H42c1.3-0.1,2.5,0.3,3.6,1c0.9,0.8,1.3,1.9,1.3,3c0,0.8-0.2,1.6-0.6,2.3
				c-0.5,0.6-1.1,1.1-1.8,1.4l3,5.6v0.1h-2.5L42.2,9z M39.6,7.1H42c0.7,0,1.3-0.2,1.8-0.6c0.5-0.4,0.7-1,0.7-1.6
				c0-0.6-0.2-1.2-0.6-1.7c-0.5-0.4-1.2-0.6-1.8-0.6h-2.5V7.1z"/>
		</g>
		<g id="Path_980">
			<path class="st0" d="M48.9,1.6c0-0.3,0.1-0.6,0.3-0.9c0.2-0.2,0.6-0.4,0.9-0.3c0.3,0,0.7,0.1,0.9,0.3c0.2,0.2,0.3,0.5,0.3,0.9
				c0,0.3-0.1,0.6-0.3,0.8c-0.3,0.2-0.6,0.4-0.9,0.3c-0.3,0-0.7-0.1-0.9-0.3C49,2.2,48.8,1.9,48.9,1.6z M51.2,14.1H49v-10h2.2
				L51.2,14.1z"/>
		</g>
		<g id="Path_981">
			<path class="st0" d="M53.2,9.1c-0.1-1.3,0.3-2.6,1.1-3.7C55,4.5,56,4,57.2,4c1,0,1.9,0.4,2.6,1.1V0H62v14.1h-2l-0.1-1
				c-0.7,0.8-1.6,1.3-2.7,1.2c-1.1,0-2.2-0.5-2.8-1.4C53.5,11.8,53.2,10.4,53.2,9.1z M55.5,9.3c0,0.8,0.2,1.7,0.6,2.4
				c0.4,0.6,1,0.9,1.7,0.9c0.9,0,1.6-0.4,2-1.2V7c-0.4-0.8-1.1-1.2-2-1.2c-0.7,0-1.3,0.3-1.7,0.9C55.6,7.5,55.4,8.4,55.5,9.3
				L55.5,9.3z"/>
		</g>
		<g id="Path_982">
			<path class="st0" d="M63.9,9.1c-0.1-1.3,0.3-2.6,1.1-3.7C65.7,4.5,66.8,4,67.9,4c1,0,2,0.4,2.7,1.2l0.1-1h2v9.7
				c0.1,1.2-0.4,2.3-1.2,3.1c-0.9,0.8-2.1,1.2-3.3,1.1c-0.7,0-1.5-0.2-2.1-0.5c-0.6-0.2-1.2-0.7-1.6-1.2l1.1-1.3
				c0.6,0.8,1.5,1.2,2.5,1.2c0.6,0,1.3-0.2,1.8-0.6c0.5-0.5,0.7-1.1,0.6-1.8v-0.7c-0.7,0.7-1.6,1.1-2.6,1.1c-1.1,0-2.2-0.5-2.9-1.4
				C64.2,11.8,63.8,10.5,63.9,9.1z M66.1,9.3c0,0.8,0.2,1.7,0.6,2.4c0.4,0.6,1,0.9,1.7,0.9c0.8,0,1.6-0.4,2-1.2V7
				c-0.4-0.7-1.2-1.2-2-1.1c-0.7,0-1.3,0.3-1.7,0.9C66.3,7.5,66.1,8.4,66.1,9.3z"/>
		</g>
		<g id="Path_983">
			<path class="st0" d="M79.4,14.3c-1.3,0.1-2.5-0.4-3.4-1.3c-0.9-1-1.4-2.2-1.3-3.6V9.1c0-0.9,0.2-1.8,0.6-2.7
				c0.4-0.8,0.9-1.4,1.6-1.8C77.5,4.2,78.3,4,79.1,4c1.2-0.1,2.3,0.4,3.1,1.3c0.8,1.1,1.2,2.4,1.1,3.7v0.9h-6.5c0,0.7,0.3,1.4,0.8,2
				c0.5,0.5,1.1,0.7,1.8,0.7c1,0,1.9-0.4,2.5-1.2l1.2,1.2c-0.4,0.6-1,1.1-1.6,1.4C80.9,14.2,80.1,14.3,79.4,14.3z M79.1,5.8
				c-0.6,0-1.1,0.2-1.5,0.6c-0.4,0.5-0.7,1.1-0.7,1.8h4.3V8.1c0-0.6-0.2-1.2-0.6-1.7C80.2,6,79.7,5.8,79.1,5.8z"/>
		</g>
		<g id="Path_984">
			<path class="st0" d="M86.5,11.8c0.4,0,0.7,0.1,1,0.4c0.2,0.2,0.4,0.6,0.3,0.9c0,0.3-0.1,0.6-0.3,0.9c-0.6,0.5-1.4,0.5-1.9,0
				c-0.2-0.2-0.4-0.5-0.4-0.9c0-0.3,0.1-0.6,0.3-0.9C85.8,11.9,86.1,11.8,86.5,11.8z"/>
		</g>
		<g id="Path_985">
			<path class="st0" d="M96.3,14.1c-0.1-0.3-0.2-0.6-0.3-0.9c-1.4,1.4-3.6,1.5-5.1,0.3c-0.6-0.5-1-1.3-0.9-2.1c0-1,0.4-1.9,1.2-2.4
				c1-0.6,2.2-0.9,3.4-0.9H96V7.4c0-0.5-0.1-0.9-0.4-1.2c-0.4-0.3-0.8-0.5-1.3-0.5c-0.4,0-0.9,0.1-1.3,0.4c-0.3,0.2-0.5,0.6-0.5,1
				h-2.2c0-0.6,0.2-1.1,0.5-1.5c0.4-0.5,0.9-0.9,1.5-1.1C92.9,4.1,93.7,4,94.4,4c1-0.1,2,0.3,2.8,0.9c0.7,0.6,1.1,1.5,1.1,2.5v4.5
				c0,0.7,0.1,1.5,0.4,2.1v0.2L96.3,14.1z M93.9,12.5c0.4,0,0.9-0.1,1.2-0.3c0.4-0.2,0.7-0.5,0.9-0.9V9.5h-1.2
				c-0.7,0-1.3,0.1-1.9,0.4c-0.4,0.3-0.6,0.7-0.6,1.2c0,0.4,0.1,0.8,0.4,1C93,12.4,93.4,12.5,93.9,12.5z"/>
		</g>
		<g id="Path_986">
			<path class="st0" d="M100.6,1.6c0-0.3,0.1-0.6,0.3-0.9c0.2-0.2,0.6-0.4,0.9-0.3c0.3,0,0.7,0.1,0.9,0.3c0.2,0.2,0.3,0.5,0.3,0.9
				c0,0.3-0.1,0.6-0.3,0.8c-0.3,0.2-0.6,0.4-0.9,0.3c-0.3,0-0.7-0.1-0.9-0.3C100.7,2.2,100.6,1.9,100.6,1.6z M103,14.1h-2.2v-10h2.2
				V14.1z"/>
		</g>
	</g>
</g>
</svg>
